<?xml version="1.0" encoding="UTF-8" standalone="no"?>
<!DOCTYPE svg PUBLIC "-//W3C//DTD SVG 1.1//EN" "http://www.w3.org/Graphics/SVG/1.1/DTD/svg11.dtd">
<svg width="100%" height="100%" viewBox="0 0 1280 1280" version="1.1" xmlns="http://www.w3.org/2000/svg" xmlns:xlink="http://www.w3.org/1999/xlink" xml:space="preserve" xmlns:serif="http://www.serif.com/" style="fill-rule:evenodd;clip-rule:evenodd;stroke-linejoin:round;stroke-miterlimit:2;">
    <g transform="matrix(2.67875,0,0,2.67875,-1074.4,-1074.4)">
        <g transform="matrix(4.16667,0,0,4.16667,442.235,441.933)">
            <path d="M52.862,66.231L52.862,88.933L60.194,87.062L60.194,76.791L68.392,83.534L74.476,79.043L58.856,66.199L52.862,66.231ZM38.526,51.889L38.526,88.932L45.858,88.932L45.858,59.221L60.99,59.221L79.198,73.749L83.772,68.019L63.557,51.889L38.526,51.889ZM89.564,40.815L84.898,35.159L69.9,47.535L84.898,59.912L89.564,54.256L81.419,47.535L89.564,40.815ZM24.032,83.765L31.364,77.386L31.364,18.327L24.032,11.948L24.032,83.765ZM74.476,17.028L68.392,12.536L60.194,19.279L60.194,9.009L52.862,7.138L52.862,29.841L58.856,29.872L74.476,17.028ZM83.772,27.052L79.198,21.322L60.99,35.852L45.858,35.852L45.858,6.14L38.526,6.14L38.526,43.184L63.557,43.184L83.772,27.052ZM9.671,34.479L17.003,27.752L17.003,68.602L9.671,62.361L9.671,34.479Z" style="fill:rgb(255,200,6);fill-rule:nonzero;"/>
        </g>
        <g transform="matrix(4.16667,0,0,4.16667,442.235,441.933)">
            <path d="M89.564,54.256L81.419,47.535L89.564,40.815L84.898,35.159L69.9,47.535L84.898,59.912L89.564,54.256ZM83.772,68.019L63.557,51.889L38.526,51.889L38.526,88.932L45.858,88.932L45.858,59.221L60.99,59.221L79.198,73.749L83.772,68.019ZM74.476,79.043L58.856,66.199L52.862,66.231L52.862,88.933L60.194,87.062L60.194,76.791L68.392,83.534L74.476,79.043ZM31.364,18.327L24.032,11.948L24.032,83.765L31.364,77.386L31.364,18.327ZM17.003,27.752L9.671,34.479L9.671,62.361L17.003,68.602L17.003,27.752ZM38.526,43.184L63.557,43.184L83.772,27.052L79.198,21.322L60.99,35.852L45.858,35.852L45.858,6.14L38.526,6.14L38.526,43.184ZM52.862,29.841L58.856,29.872L74.476,17.028L68.392,12.536L60.194,19.279L60.194,9.009L52.862,7.138L52.862,29.841ZM94.927,47.535C94.927,73.749 73.675,95 47.463,95C21.249,95 0,73.749 0,47.535C0,21.323 21.249,0.072 47.463,0.072C73.675,0.072 94.927,21.323 94.927,47.535Z" style="fill:rgb(3,4,4);"/>
        </g>
    </g>
</svg>
